#N canvas 117 55 952 526 10;
#X declare -lib mrpeach;
#X obj 372 135 s pi11;
#X obj 703 132 s pi14;
#X obj 590 133 s pi13;
#X obj 479 134 s pi12;
#X obj 573 38 bng 15 250 50 0 empty empty empty 17 7 0 10 -262144 -1
-1;
#X obj 371 264 s pi11;
#X obj 702 261 s pi14;
#X obj 589 262 s pi13;
#X obj 478 263 s pi12;
#X obj 572 167 bng 15 250 50 0 empty empty empty 17 7 0 10 -262144
-1 -1;
#X obj 376 393 s pi11;
#X obj 707 390 s pi14;
#X obj 594 391 s pi13;
#X obj 483 392 s pi12;
#X obj 577 296 bng 15 250 50 0 empty empty empty 17 7 0 10 -262144
-1 -1;
#X msg 374 363 ch1/set_media 3;
#N canvas 270 54 1035 686 connect 0;
#X obj 111 138 packOSC;
#X obj 111 165 udpsend;
#X msg 33 89 connect 192.168.0.11 9001;
#X obj 111 112 r pi11;
#X obj 357 48 r connect;
#X obj 238 144 packOSC;
#X obj 238 171 udpsend;
#X msg 211 88 connect 192.168.0.12 9001;
#X obj 238 118 r pi12;
#X obj 436 145 packOSC;
#X obj 436 172 udpsend;
#X msg 401 86 connect 192.168.0.13 9001;
#X obj 436 119 r pi13;
#X obj 613 145 packOSC;
#X obj 613 172 udpsend;
#X msg 580 88 connect 192.168.0.14 9001;
#X obj -34 21 import mrpeach;
#X obj 613 119 r pi14;
#X obj 0 229 udpreceive 9000;
#X obj 0 256 unpackOSC;
#X floatatom 104 322 5 0 0 0 - - -;
#X floatatom 0 322 5 0 0 0 - - -;
#X obj 0 282 routeOSC /ch2/receive_current_frame /ch1/receive_current_frame
;
#X text -2 205 192.168.0.11;
#X text 240 205 192.168.0.12;
#X text 531 205 192.168.0.13;
#X text 754 205 192.168.0.14;
#X obj 242 256 unpackOSC;
#X floatatom 346 322 5 0 0 0 - - -;
#X floatatom 242 322 5 0 0 0 - - -;
#X obj 242 282 routeOSC /ch2/receive_current_frame /ch1/receive_current_frame
;
#X obj 242 229 udpreceive 9002;
#X obj 506 256 unpackOSC;
#X floatatom 610 322 5 0 0 0 - - -;
#X floatatom 506 322 5 0 0 0 - - -;
#X obj 506 282 routeOSC /ch2/receive_current_frame /ch1/receive_current_frame
;
#X obj 1 349 s 11ch2f;
#X obj 104 349 s 11ch1f;
#X obj 242 349 s 12ch2f;
#X obj 347 349 s 12ch1f;
#X obj 507 349 s 13ch2f;
#X obj 610 349 s 13ch1f;
#X obj 506 229 udpreceive 9003;
#X obj 758 256 unpackOSC;
#X floatatom 862 322 5 0 0 0 - - -;
#X floatatom 758 322 5 0 0 0 - - -;
#X obj 758 282 routeOSC /ch2/receive_current_frame /ch1/receive_current_frame
;
#X obj 758 229 udpreceive 9004;
#X obj 759 349 s 14ch2f;
#X obj 863 349 s 14ch1f;
#X text 535 32 tu maquina necesita tener un ip fijo - 192.168.0.20
;
#X obj 396 430 unpackOSC;
#X obj 195 406 print unpacked;
#X obj 396 403 udpreceive 9005;
#X obj 243 573 s z1;
#X obj 344 573 s z2;
#X obj 445 573 s z3;
#X obj 554 573 s z4;
#X floatatom 443 528 5 0 0 0 - - -;
#X floatatom 553 528 5 0 0 0 - - -;
#X obj 554 549 change;
#X obj 243 549 change;
#X obj 343 549 change;
#X obj 443 549 change;
#X floatatom 343 528 5 0 0 0 - - -;
#X obj 396 453 routeOSC /z1 /z2 /z3 /z4 /z5 /z6 /z7 /z8 /z9;
#X floatatom 242 528 5 0 0 0 - - -;
#X obj 173 507 unpack 0 0 0;
#X obj 278 507 unpack 0 0 0;
#X obj 382 507 unpack 0 0 0;
#X obj 484 507 unpack 0 0 0;
#X floatatom 665 528 5 0 0 0 - - -;
#X obj 665 549 change;
#X obj 596 507 unpack 0 0 0;
#X obj 665 573 s z5;
#X obj 175 537 tgl 50 0 empty empty empty 17 7 0 10 -262144 -1 -1 0
1;
#X obj 281 536 tgl 50 0 empty empty empty 17 7 0 10 -262144 -1 -1 0
1;
#X obj 389 534 tgl 50 0 empty empty empty 17 7 0 10 -262144 -1 -1 0
1;
#X obj 488 535 tgl 50 0 empty empty empty 17 7 0 10 -262144 -1 -1 0
1;
#X obj 604 534 tgl 50 0 empty empty empty 17 7 0 10 -262144 -1 -1 0
1;
#X text 772 178 comment;
#X connect 0 0 1 0;
#X connect 2 0 1 0;
#X connect 3 0 0 0;
#X connect 4 0 2 0;
#X connect 4 0 7 0;
#X connect 4 0 11 0;
#X connect 4 0 15 0;
#X connect 5 0 6 0;
#X connect 7 0 6 0;
#X connect 8 0 5 0;
#X connect 9 0 10 0;
#X connect 11 0 10 0;
#X connect 12 0 9 0;
#X connect 13 0 14 0;
#X connect 15 0 14 0;
#X connect 17 0 13 0;
#X connect 18 0 19 0;
#X connect 19 0 22 0;
#X connect 20 0 37 0;
#X connect 21 0 36 0;
#X connect 22 0 21 0;
#X connect 22 1 20 0;
#X connect 27 0 30 0;
#X connect 28 0 39 0;
#X connect 29 0 38 0;
#X connect 30 0 29 0;
#X connect 30 1 28 0;
#X connect 31 0 27 0;
#X connect 32 0 35 0;
#X connect 33 0 41 0;
#X connect 34 0 40 0;
#X connect 35 0 34 0;
#X connect 35 1 33 0;
#X connect 42 0 32 0;
#X connect 43 0 46 0;
#X connect 44 0 49 0;
#X connect 45 0 48 0;
#X connect 46 0 45 0;
#X connect 46 1 44 0;
#X connect 47 0 43 0;
#X connect 51 0 65 0;
#X connect 53 0 51 0;
#X connect 58 0 63 0;
#X connect 59 0 60 0;
#X connect 60 0 57 0;
#X connect 60 0 78 0;
#X connect 61 0 54 0;
#X connect 61 0 75 0;
#X connect 62 0 55 0;
#X connect 62 0 76 0;
#X connect 63 0 56 0;
#X connect 63 0 77 0;
#X connect 64 0 62 0;
#X connect 65 0 52 0;
#X connect 65 0 67 0;
#X connect 65 1 68 0;
#X connect 65 2 69 0;
#X connect 65 3 70 0;
#X connect 66 0 61 0;
#X connect 67 2 66 0;
#X connect 68 2 64 0;
#X connect 69 2 58 0;
#X connect 70 2 59 0;
#X connect 71 0 72 0;
#X connect 72 0 74 0;
#X connect 72 0 79 0;
#X connect 73 2 71 0;
#X restore 58 -5 pd connect;
#X obj 60 45 s connect;
#X obj 60 24 bng 15 250 50 0 empty empty empty 17 7 0 10 -262144 -1
-1;
#X text 77 23 1;
#X msg 61 138 send /ch1/set_alpha \$1;
#X obj 154 173 s pi13;
#X obj 61 174 s pi11;
#X obj 201 173 s pi14;
#X obj 106 173 s pi12;
#X msg 61 110 255;
#X msg 370 106 ch1/set_media 1;
#X msg 479 105 ch1/set_media 1;
#X msg 587 107 ch1/set_media 1;
#X msg 699 108 ch1/set_media 1;
#X msg 369 234 ch1/set_media 2;
#X msg 479 234 ch1/set_media 2;
#X msg 586 236 ch1/set_media 2;
#X msg 698 237 ch1/set_media 2;
#X msg 484 363 ch1/set_media 3;
#X msg 591 365 ch1/set_media 3;
#X msg 703 366 ch1/set_media 3;
#X text 386 4 ejemplos:;
#X text 591 36 bang para enviar;
#X obj 165 300 s pi13;
#X obj 72 301 s pi11;
#X obj 212 300 s pi14;
#X obj 117 300 s pi12;
#X text 55 83 poner canal 1 en visibilidad maxima;
#X msg 72 265 send /ch1/play;
#X obj 73 242 bng 15 250 50 0 empty empty empty 17 7 0 10 -262144 -1
-1;
#X text 67 219 si son videos - poner en play;
#X connect 4 0 27 0;
#X connect 4 0 26 0;
#X connect 4 0 28 0;
#X connect 4 0 29 0;
#X connect 9 0 31 0;
#X connect 9 0 30 0;
#X connect 9 0 32 0;
#X connect 9 0 33 0;
#X connect 14 0 34 0;
#X connect 14 0 15 0;
#X connect 14 0 35 0;
#X connect 14 0 36 0;
#X connect 15 0 10 0;
#X connect 18 0 17 0;
#X connect 20 0 21 0;
#X connect 20 0 22 0;
#X connect 20 0 24 0;
#X connect 20 0 23 0;
#X connect 25 0 20 0;
#X connect 26 0 0 0;
#X connect 27 0 3 0;
#X connect 28 0 2 0;
#X connect 29 0 1 0;
#X connect 30 0 5 0;
#X connect 31 0 8 0;
#X connect 32 0 7 0;
#X connect 33 0 6 0;
#X connect 34 0 13 0;
#X connect 35 0 12 0;
#X connect 36 0 11 0;
#X connect 44 0 39 0;
#X connect 44 0 40 0;
#X connect 44 0 42 0;
#X connect 44 0 41 0;
#X connect 45 0 44 0;
