#N canvas 105 83 815 466 10;
#X declare -lib mrpeach;
#X obj 119 -83 tgl 15 0 empty empty empty 17 7 0 10 -262144 -1 -1 1
1;
#X floatatom 220 16 5 0 0 0 - - -;
#X obj 120 13 + 1;
#N canvas 203 199 1044 385 connect 0;
#X obj 387 139 packOSC;
#X obj 387 166 udpsend;
#X obj -34 21 import mrpeach;
#X obj 345 249 unpackOSC;
#X floatatom 449 315 5 0 0 0 - - -;
#X floatatom 345 315 5 0 0 0 - - -;
#X obj 346 342 s 13ch2f;
#X obj 449 342 s 13ch1f;
#X obj 345 222 udpreceive 9003;
#X obj 383 274 routeOSC /ch2/receive_current_frame /ch3/receive_current_frame
/receive_dir_list;
#X obj 516 338 print;
#X obj 387 113 r pi11;
#X msg 352 80 connect 192.168.100.35 9001;
#X obj 352 49 inlet;
#X text -21 228 port number and server IP to receive from trmxClient
is set in bin/data/settings.xml in the trmxClient directory on RPi
;
#X text 147 84 IP de la maquina con trmclient;
#X connect 0 0 1 0;
#X connect 3 0 9 0;
#X connect 4 0 7 0;
#X connect 5 0 6 0;
#X connect 8 0 3 0;
#X connect 9 0 5 0;
#X connect 9 1 4 0;
#X connect 9 2 10 0;
#X connect 11 0 0 0;
#X connect 12 0 1 0;
#X connect 13 0 12 0;
#X restore 501 -33 pd connect;
#N canvas 684 173 638 473 one.two 0;
#X obj 141 65 inlet;
#X obj 257 353 s pi11;
#X obj 141 90 t b b b;
#X msg 256 194 send /ch2/set_media 3;
#X msg 402 191 send /ch2/set_alpha 255;
#X msg 145 195 send /ch3/stop;
#X msg 39 198 send /ch2/play;
#X obj 40 159 del 450;
#X msg 15 227 send /ch3/set_alpha 0;
#X connect 0 0 2 0;
#X connect 2 0 5 0;
#X connect 2 0 7 0;
#X connect 2 1 3 0;
#X connect 2 2 4 0;
#X connect 3 0 1 0;
#X connect 4 0 1 0;
#X connect 5 0 1 0;
#X connect 6 0 1 0;
#X connect 7 0 6 0;
#X connect 7 0 8 0;
#X connect 8 0 1 0;
#X restore 264 140 pd one.two;
#N canvas 657 111 638 473 one.one 0;
#X obj 141 65 inlet;
#X obj 257 353 s pi11;
#X obj 141 90 t b b b;
#X msg 145 195 send /ch3/stop;
#X msg 39 198 send /ch2/play;
#X msg 256 193 send /ch2/set_media 1;
#X msg 402 191 send /ch2/set_alpha 255;
#X msg 15 227 send /ch3/set_alpha 0;
#X obj 40 159 del 450;
#X connect 0 0 2 0;
#X connect 2 0 3 0;
#X connect 2 0 8 0;
#X connect 2 1 5 0;
#X connect 2 2 6 0;
#X connect 3 0 1 0;
#X connect 4 0 1 0;
#X connect 5 0 1 0;
#X connect 6 0 1 0;
#X connect 7 0 1 0;
#X connect 8 0 4 0;
#X connect 8 0 7 0;
#X restore 220 231 pd one.one;
#N canvas 657 111 638 473 two.one 0;
#X obj 141 65 inlet;
#X obj 257 353 s pi11;
#X obj 141 90 t b b b;
#X msg 39 198 send /ch3/play;
#X msg 145 195 send /ch2/stop;
#X msg 256 194 send /ch3/set_media 2;
#X msg 402 191 send /ch3/set_alpha 255;
#X msg 15 227 send /ch2/set_alpha 0;
#X obj 40 159 del 450;
#X connect 0 0 2 0;
#X connect 2 0 4 0;
#X connect 2 0 8 0;
#X connect 2 1 5 0;
#X connect 2 2 6 0;
#X connect 3 0 1 0;
#X connect 4 0 1 0;
#X connect 5 0 1 0;
#X connect 6 0 1 0;
#X connect 7 0 1 0;
#X connect 8 0 3 0;
#X connect 8 0 7 0;
#X restore 234 199 pd two.one;
#N canvas 657 111 638 473 two.two 0;
#X obj 141 65 inlet;
#X obj 257 353 s pi11;
#X obj 141 90 t b b b;
#X msg 256 194 send /ch2/set_media 4;
#X msg 145 195 send /ch3/stop;
#X msg 39 198 send /ch2/play;
#X msg 401 191 send /ch2/set_alpha 255;
#X msg 15 227 send /ch3/set_alpha 0;
#X obj 40 159 del 450;
#X connect 0 0 2 0;
#X connect 2 0 4 0;
#X connect 2 0 8 0;
#X connect 2 1 3 0;
#X connect 2 2 6 0;
#X connect 3 0 1 0;
#X connect 4 0 1 0;
#X connect 5 0 1 0;
#X connect 6 0 1 0;
#X connect 7 0 1 0;
#X connect 8 0 5 0;
#X connect 8 0 7 0;
#X restore 249 169 pd two.two;
#X obj 293 229 bng 15 250 50 0 empty empty empty 17 7 0 10 -262144
-1 -1;
#X obj 302 200 bng 15 250 50 0 empty empty empty 17 7 0 10 -262144
-1 -1;
#X obj 335 142 bng 15 250 50 0 empty empty empty 17 7 0 10 -262144
-1 -1;
#X obj 321 172 bng 15 250 50 0 empty empty empty 17 7 0 10 -262144
-1 -1;
#N canvas 657 111 638 473 one.two 0;
#X obj 141 65 inlet;
#X obj 257 353 s pi11;
#X obj 141 90 t b b b;
#X msg 402 191 send /ch3/set_alpha 255;
#X msg 15 227 send /ch2/set_alpha 0;
#X msg 39 198 send /ch3/play;
#X msg 145 195 send /ch2/stop;
#X msg 256 194 send /ch3/set_media 5;
#X obj 40 159 del 450;
#X connect 0 0 2 0;
#X connect 2 0 6 0;
#X connect 2 0 8 0;
#X connect 2 1 7 0;
#X connect 2 2 3 0;
#X connect 3 0 1 0;
#X connect 4 0 1 0;
#X connect 5 0 1 0;
#X connect 6 0 1 0;
#X connect 7 0 1 0;
#X connect 8 0 5 0;
#X connect 8 0 4 0;
#X restore 278 111 pd one.two;
#N canvas 657 111 638 473 two.two 0;
#X obj 141 65 inlet;
#X obj 257 353 s pi11;
#X obj 141 90 t b b b;
#X msg 145 195 send /ch3/stop;
#X msg 39 198 send /ch2/play;
#X msg 401 191 send /ch2/set_alpha 255;
#X msg 15 227 send /ch3/set_alpha 0;
#X msg 256 194 send /ch2/set_media 6;
#X obj 40 159 del 450;
#X connect 0 0 2 0;
#X connect 2 0 3 0;
#X connect 2 0 8 0;
#X connect 2 1 7 0;
#X connect 2 2 5 0;
#X connect 3 0 1 0;
#X connect 4 0 1 0;
#X connect 5 0 1 0;
#X connect 6 0 1 0;
#X connect 7 0 1 0;
#X connect 8 0 4 0;
#X connect 8 0 6 0;
#X restore 291 84 pd two.two;
#X obj 219 46 sel 1 2 3 4 5 6;
#X obj 119 -13 counter 5;
#X obj 346 113 bng 15 250 50 0 empty empty empty 17 7 0 10 -262144
-1 -1;
#X obj 358 84 bng 15 250 50 0 empty empty empty 17 7 0 10 -262144 -1
-1;
#X obj 501 -56 bng 15 250 50 0 empty empty empty 17 7 0 10 -262144
-1 -1;
#X text 652 -81 empezado a 16.35;
#X obj 120 -59 metro 3000;
#X obj 218 -10 shuffle 1 6 0.25;
#N canvas 701 169 450 300 display 0;
#X msg 167 93 send /toggle_display;
#X obj 166 122 s pi11;
#X obj 167 47 inlet;
#X connect 0 0 1 0;
#X connect 2 0 0 0;
#X restore 512 64 pd display;
#X obj 512 38 bng 15 250 50 0 empty empty empty 17 7 0 10 -262144 -1
-1;
#X text 51 -87 switch on;
#X text 195 -60 adjust time between movie changes;
#X text 419 -12 open here to set communications parametros and bang
to connect;
#X text 464 94 toggle onscreen display;
#N canvas 394 50 714 345 manual 0;
#X obj 552 258 s pi11;
#X obj 50 66 vsl 15 128 0 255 0 0 empty empty empty 0 -9 0 10 -262144
-1 -1 0 1;
#X msg 50 226 send /ch1/set_alpha \$1;
#X obj 217 68 vsl 15 128 0 255 0 0 empty empty empty 0 -9 0 10 -262144
-1 -1 0 1;
#X obj 397 65 vsl 15 128 0 255 0 0 empty empty empty 0 -9 0 10 -262144
-1 -1 0 1;
#X obj 552 68 vsl 15 128 0 255 0 0 empty empty empty 0 -9 0 10 -262144
-1 -1 0 1;
#X obj 50 203 i;
#X obj 218 204 i;
#X obj 396 202 i;
#X obj 553 206 i;
#X obj 53 257 s pi11;
#X msg 217 228 send /ch3/set_alpha \$1;
#X obj 217 257 s pi11;
#X msg 394 229 send /ch4/set_alpha \$1;
#X obj 394 264 s pi11;
#X msg 552 227 send /ch2/set_alpha \$1;
#X text 46 28 manual fades;
#X connect 1 0 6 0;
#X connect 2 0 10 0;
#X connect 3 0 7 0;
#X connect 4 0 8 0;
#X connect 5 0 9 0;
#X connect 6 0 2 0;
#X connect 7 0 11 0;
#X connect 8 0 13 0;
#X connect 9 0 15 0;
#X connect 11 0 12 0;
#X connect 13 0 14 0;
#X connect 15 0 0 0;
#X restore 485 157 pd manual fades;
#X text 457 190 open for manual alpha fades;
#X text 470 258 pedruski@gmail.com;
#X text 152 272 you need to put 6 media files;
#X text 143 286 (images or videos) in /home/pi/media;
#X connect 0 0 20 0;
#X connect 1 0 14 0;
#X connect 8 0 5 0;
#X connect 9 0 6 0;
#X connect 10 0 4 0;
#X connect 11 0 7 0;
#X connect 14 0 5 0;
#X connect 14 1 6 0;
#X connect 14 2 7 0;
#X connect 14 3 4 0;
#X connect 14 4 12 0;
#X connect 14 5 13 0;
#X connect 15 0 2 0;
#X connect 16 0 12 0;
#X connect 17 0 13 0;
#X connect 18 0 3 0;
#X connect 20 0 15 0;
#X connect 20 0 21 0;
#X connect 21 0 1 0;
#X connect 23 0 22 0;
